<?xml version="1.0" encoding="utf-8"?>
<!-- Generator: Adobe Illustrator 25.0.0, SVG Export Plug-In . SVG Version: 6.00 Build 0)  -->
<svg version="1.1" baseProfile="tiny" id="Ebene_1" xmlns="http://www.w3.org/2000/svg" xmlns:xlink="http://www.w3.org/1999/xlink"
	 x="0px" y="0px" viewBox="0 0 127 43" overflow="visible" xml:space="preserve">
<g>
	<path fill="#1C1C1C" d="M36.8,3l-0.4,2.1l-3.6,0.4L22.5,26.3v12.9l4.1,1.4L26,42.2h-9l-4.7,0.5l0.4-2.1l3.6-0.4V26.9L5.8,6.6
		L1.7,5.1l0.6-1.6h9.2L16.2,3l-0.4,2.1l-3.6,0.4L21.1,24l8.5-17.5l-4.1-1.4l0.6-1.6h5.9L36.8,3z"/>
	<path fill="#1C1C1C" d="M62.9,41.4l-7.7,1.4c-1.1-0.6-1.7-1.6-2.2-2.6v-2.4l-9.7,5.1c-2.3-0.1-7-3.1-7.3-5.6V18.7l-3.7,0.6
		l-0.4-1.4l7.7-3.2l1.9,1v19.1c0,0.9,0.1,1.4,0.2,1.9l3.7,2.7l7.5-3.6V18.7l-3.7,0.6l-0.4-1.4l7.6-3.2l1.9,1v20.8
		c0,0.9,0.1,3,0.7,3.3l3.2-0.3L62.9,41.4z"/>
	<path fill="#1C1C1C" d="M66.6,42.7l0.4-2.1l3.3-0.4V4.9l-3.7,0.6l-0.4-1.4l7.7-3.2l1.9,1v37.3l3.7,1.4L79,42.2h-8L66.6,42.7z"/>
	<path fill="#1C1C1C" d="M83.1,42.7l0.4-2.1l3.3-0.4V18.7l-3.7,0.6l-0.4-1.4l7.7-3.2l1.9,1v23.5l3.7,1.4l-0.5,1.6h-8L83.1,42.7z
		 M85.9,5l5-2.5l2.6,5.4l-5,2.5L85.9,5z"/>
	<path fill="#1C1C1C" d="M126.3,41.4l-7.7,1.4c-1.1-0.6-1.7-1.6-2.2-2.6v-2.4l-10.2,5c-3.4-1.5-5.2-4.1-5.2-7.4c0-1,0.2-2,0.7-3.2
		l14.6-4.3v-6.2c-0.8-1.5-3.3-3.1-5.4-3.6l-3.8,1.1c0.2,1.7,0.6,3.7,1,5.3l-3.9,1.4l-2.3-6.7l-0.1-0.1l11.8-4.5
		c2.4,0.7,6.8,2.4,8.2,6.1v15.8c0,0.9,0.1,3,0.7,3.3l3.2-0.3L126.3,41.4z M108.9,39.3l7.5-3.1v-6.9l-9.3,3.3
		c-0.4,0.5-0.7,1.3-0.7,2.2C106.4,37.9,108,38.8,108.9,39.3z"/>
</g>
</svg>
